<svg width="1240" height="332" viewBox="0 0 1440 332" fill="none" xmlns="http://www.w3.org/2000/svg">
<rect width="1440" height="332" fill="#F2F8FF"/>
<path d="M491.539 111H496.545V88.957H496.91L505.504 111H509.285L517.879 88.957H518.266V111H523.25V79.998H516.891L507.588 103.846H507.223L497.898 79.998H491.539V111ZM530.748 111H540.738C546.217 111 549.719 107.82 549.719 102.836V102.793C549.719 97.8086 546.217 94.6074 540.738 94.6074H536.098V87.5176H530.748V111ZM553.564 111H558.914V87.5176H553.564V111ZM540.051 98.7324C542.65 98.7324 544.326 100.344 544.326 102.771V102.814C544.326 105.221 542.672 106.875 540.051 106.875H536.098V98.7324H540.051ZM578.164 111H591.42C598.037 111 602.076 107.648 602.076 102.213V102.17C602.076 98.1523 599.197 95.1445 595.029 94.7578V94.3711C598.145 93.877 600.551 90.998 600.551 87.7539V87.7109C600.551 82.9629 597.006 79.998 591.119 79.998H578.164V111ZM589.766 84.3164C593.117 84.3164 595.072 85.9277 595.072 88.6777V88.7207C595.072 91.5352 592.988 93.0605 589.057 93.0605H583.707V84.3164H589.766ZM589.938 96.9922C594.17 96.9922 596.404 98.6465 596.404 101.783V101.826C596.404 104.984 594.234 106.682 590.152 106.682H583.707V96.9922H589.938ZM614.387 111.387C617.48 111.387 619.973 110.055 621.262 107.777H621.627V111H626.912V94.9512C626.912 89.9883 623.518 87.0664 617.48 87.0664C611.895 87.0664 608.113 89.6875 607.598 93.6406L607.576 93.834H612.625L612.646 93.748C613.184 92.2012 614.773 91.3203 617.223 91.3203C620.102 91.3203 621.627 92.6094 621.627 94.9512V96.9707L615.59 97.3359C609.875 97.6797 606.674 100.129 606.674 104.318V104.361C606.674 108.637 609.918 111.387 614.387 111.387ZM611.959 104.104V104.061C611.959 102.127 613.355 101.031 616.342 100.838L621.627 100.494V102.385C621.627 105.178 619.242 107.283 616.02 107.283C613.656 107.283 611.959 106.102 611.959 104.104ZM638.857 111V94.9727H639.266L645.711 109.947H649.535L656.002 94.9727H656.41V111H661.523V87.5176H654.842L647.881 103.867H647.494L640.555 87.5176H633.744V111H638.857ZM680.193 111H685.543V91.6641H695.232V111H700.582V87.5176H680.193V111ZM717.598 111.473C723.979 111.473 727.115 107.799 727.867 104.77L727.932 104.576H722.84L722.775 104.727C722.26 105.801 720.605 107.262 717.705 107.262C714.074 107.262 711.797 104.812 711.732 100.602H728.146V98.8398C728.146 91.75 724.021 87.0664 717.34 87.0664C710.658 87.0664 706.383 91.9004 706.383 99.291V99.3125C706.383 106.789 710.615 111.473 717.598 111.473ZM717.404 91.2559C720.391 91.2559 722.561 93.168 722.926 97.0137H711.775C712.184 93.2754 714.418 91.2559 717.404 91.2559ZM733.926 118.799H739.275V107.262H739.641C740.865 109.797 743.551 111.387 746.773 111.387C752.725 111.387 756.42 106.768 756.42 99.291V99.248C756.42 91.8145 752.66 87.1309 746.773 87.1309C743.486 87.1309 740.93 88.6348 739.641 91.1914H739.275V87.5176H733.926V118.799ZM745.098 106.875C741.467 106.875 739.211 103.975 739.211 99.2695V99.2266C739.211 94.5215 741.467 91.6426 745.098 91.6426C748.75 91.6426 750.963 94.5215 750.963 99.248V99.291C750.963 103.996 748.75 106.875 745.098 106.875ZM772.297 111.473C778.678 111.473 781.814 107.799 782.566 104.77L782.631 104.576H777.539L777.475 104.727C776.959 105.801 775.305 107.262 772.404 107.262C768.773 107.262 766.496 104.812 766.432 100.602H782.846V98.8398C782.846 91.75 778.721 87.0664 772.039 87.0664C765.357 87.0664 761.082 91.9004 761.082 99.291V99.3125C761.082 106.789 765.314 111.473 772.297 111.473ZM772.104 91.2559C775.09 91.2559 777.26 93.168 777.625 97.0137H766.475C766.883 93.2754 769.117 91.2559 772.104 91.2559ZM797.283 111.494C803.32 111.494 807.166 108.465 807.166 104.104V104.061C807.166 101.439 805.576 99.5488 802.311 98.9043V98.5391C804.846 97.959 806.414 96.0469 806.414 93.5762V93.5332C806.414 89.5586 802.977 87.0449 797.412 87.0449C791.654 87.0449 788.367 89.8164 787.83 93.9199L787.809 94.0918H792.879L792.9 93.9844C793.223 92.2871 794.834 91.1914 797.24 91.1914C799.883 91.1914 801.193 92.4805 801.193 94.1777V94.2207C801.193 96.1543 799.904 97.2715 797.176 97.2715H793.824V100.881H797.197C800.227 100.881 801.859 101.934 801.859 104.018V104.061C801.859 105.994 800.141 107.348 797.219 107.348C794.705 107.348 792.922 106.295 792.428 104.49L792.385 104.34H787.186L787.207 104.533C787.723 109.088 791.955 111.494 797.283 111.494ZM813.053 111H824.311C829.531 111 832.711 108.314 832.711 104.318V104.275C832.711 101.439 830.67 99.291 827.576 98.9473V98.582C829.961 98.1738 831.658 96.0039 831.658 93.5547V93.5117C831.658 89.9023 828.887 87.5176 824.16 87.5176H813.053V111ZM818.338 97.2715V91.2129H822.893C825.256 91.2129 826.395 92.416 826.395 94.1992V94.2422C826.395 96.1973 825.105 97.2715 822.463 97.2715H818.338ZM818.338 107.305V100.859H822.85C825.771 100.859 827.232 101.912 827.232 104.039V104.082C827.232 106.102 825.922 107.305 823.344 107.305H818.338ZM848.523 111.473C855.549 111.473 859.824 106.875 859.824 99.2695V99.2266C859.824 91.6641 855.527 87.0664 848.523 87.0664C841.541 87.0664 837.223 91.6855 837.223 99.2266V99.2695C837.223 106.875 841.477 111.473 848.523 111.473ZM848.523 107.133C844.807 107.133 842.68 104.232 842.68 99.291V99.248C842.68 94.3066 844.807 91.3848 848.523 91.3848C852.219 91.3848 854.346 94.3066 854.346 99.248V99.291C854.346 104.232 852.24 107.133 848.523 107.133ZM880.857 111H886.207V87.5176H880.857V96.8203H870.953V87.5176H865.604V111H870.953V100.967H880.857V111ZM893.146 111H898.432L908.314 95.1875H908.766V111H914.051V87.5176H908.766L898.861 103.244H898.432V87.5176H893.146V111ZM926.104 111V94.9727H926.512L932.957 109.947H936.781L943.248 94.9727H943.656V111H948.77V87.5176H942.088L935.127 103.867H934.74L927.801 87.5176H920.99V111H926.104Z" fill="#161C24"/>
<path d="M462.984 169H469.969V167.734H464.391V163.859H469.68V162.609H464.391V158.992H469.969V157.727H462.984V169ZM475.945 169.148C477.969 169.148 479.102 168.062 479.445 166.539L479.461 166.453L478.117 166.461L478.102 166.508C477.789 167.445 477.07 167.945 475.938 167.945C474.438 167.945 473.469 166.703 473.469 164.766V164.75C473.469 162.852 474.422 161.633 475.938 161.633C477.148 161.633 477.898 162.305 478.109 163.133L478.117 163.156H479.469L479.461 163.109C479.211 161.609 477.984 160.43 475.938 160.43C473.578 160.43 472.078 162.133 472.078 164.75V164.766C472.078 167.438 473.586 169.148 475.945 169.148ZM483.578 165.703L483.891 161.703H486.82V169H488.18V160.578H482.672L482.312 165.594C482.227 166.844 481.914 167.82 481.141 167.82C480.938 167.82 480.727 167.789 480.656 167.766V168.992C480.766 169.031 480.984 169.078 481.273 169.078C482.68 169.078 483.398 168.023 483.578 165.703ZM490.852 169H492.211L496.375 162.719H496.5V169H497.859V160.578H496.5L492.336 166.859H492.211V160.578H490.852V169ZM505.766 171.953C507.258 171.953 507.953 171.406 508.648 169.516L511.938 160.578H510.508L508.203 167.508H508.078L505.766 160.578H504.312L507.43 169.008L507.273 169.508C506.969 170.477 506.5 170.828 505.727 170.828C505.539 170.828 505.328 170.82 505.164 170.789V171.906C505.352 171.938 505.586 171.953 505.766 171.953ZM518.383 169H521.969C523.781 169 524.852 168.047 524.852 166.586V166.57C524.852 165.594 524.172 164.844 523.102 164.695V164.57C523.891 164.406 524.477 163.617 524.477 162.781V162.766C524.477 161.445 523.547 160.578 521.953 160.578H518.383V169ZM519.742 164.141V161.703H521.758C522.703 161.703 523.125 162.188 523.125 162.906V162.922C523.125 163.719 522.633 164.141 521.539 164.141H519.742ZM519.742 167.875V165.266H521.656C522.867 165.266 523.469 165.656 523.469 166.547V166.562C523.469 167.406 522.945 167.875 521.914 167.875H519.742ZM529.469 169.148C530.602 169.148 531.484 168.656 532.016 167.758H532.141V169H533.5V163.234C533.5 161.484 532.352 160.43 530.297 160.43C528.5 160.43 527.219 161.32 527 162.641L526.992 162.688H528.352L528.359 162.664C528.578 162.008 529.242 161.633 530.25 161.633C531.508 161.633 532.141 162.195 532.141 163.234V164L529.727 164.148C527.766 164.266 526.656 165.133 526.656 166.633V166.648C526.656 168.18 527.867 169.148 529.469 169.148ZM528.047 166.617V166.602C528.047 165.766 528.609 165.312 529.891 165.234L532.141 165.094V165.859C532.141 167.062 531.133 167.969 529.75 167.969C528.773 167.969 528.047 167.469 528.047 166.617ZM539.586 169.148C541.609 169.148 542.742 168.062 543.086 166.539L543.102 166.453L541.758 166.461L541.742 166.508C541.43 167.445 540.711 167.945 539.578 167.945C538.078 167.945 537.109 166.703 537.109 164.766V164.75C537.109 162.852 538.062 161.633 539.578 161.633C540.789 161.633 541.539 162.305 541.75 163.133L541.758 163.156H543.109L543.102 163.109C542.852 161.609 541.625 160.43 539.578 160.43C537.219 160.43 535.719 162.133 535.719 164.75V164.766C535.719 167.438 537.227 169.148 539.586 169.148ZM549.742 169H553.328C555.141 169 556.211 168.047 556.211 166.586V166.57C556.211 165.594 555.531 164.844 554.461 164.695V164.57C555.25 164.406 555.836 163.617 555.836 162.781V162.766C555.836 161.445 554.906 160.578 553.312 160.578H549.742V169ZM551.102 164.141V161.703H553.117C554.062 161.703 554.484 162.188 554.484 162.906V162.922C554.484 163.719 553.992 164.141 552.898 164.141H551.102ZM551.102 167.875V165.266H553.016C554.227 165.266 554.828 165.656 554.828 166.547V166.562C554.828 167.406 554.305 167.875 553.273 167.875H551.102ZM561.898 169.148C564.297 169.148 565.781 167.492 565.781 164.797V164.781C565.781 162.078 564.297 160.43 561.898 160.43C559.5 160.43 558.016 162.078 558.016 164.781V164.797C558.016 167.492 559.5 169.148 561.898 169.148ZM561.898 167.945C560.305 167.945 559.406 166.781 559.406 164.797V164.781C559.406 162.789 560.305 161.633 561.898 161.633C563.492 161.633 564.391 162.789 564.391 164.781V164.797C564.391 166.781 563.492 167.945 561.898 167.945ZM570.828 169.156C572.789 169.156 574.141 168.086 574.141 166.523V166.508C574.141 165.57 573.555 164.898 572.445 164.656V164.531C573.281 164.336 573.836 163.562 573.836 162.711V162.695C573.836 161.352 572.758 160.422 570.875 160.422C569.156 160.422 567.922 161.281 567.727 162.633L567.719 162.688H569.047L569.055 162.648C569.188 161.977 569.914 161.547 570.875 161.547C571.953 161.547 572.508 162.078 572.508 162.797V162.812C572.508 163.688 571.906 164.117 570.828 164.117H569.516V165.242H570.828C572.117 165.242 572.805 165.664 572.805 166.578V166.594C572.805 167.43 572.07 168.031 570.828 168.031C569.805 168.031 569.055 167.594 568.883 166.906L568.867 166.844H567.484L567.492 166.906C567.664 168.266 569.031 169.156 570.828 169.156ZM581.93 169H583.289V160.578H581.93V164.062H577.758V160.578H576.398V169H577.758V165.188H581.93V169ZM585.961 169H587.32L591.484 162.719H591.609V169H592.969V160.578H591.609L587.445 166.859H587.32V160.578H585.961V169ZM597.438 165.164L600.734 169H602.477L598.539 164.547L602.328 160.578H600.695L597.438 164.102H597.008V160.578H595.648V169H597.008V165.164H597.438ZM606.172 165.703L606.484 161.703H609.414V169H610.773V160.578H605.266L604.906 165.594C604.82 166.844 604.508 167.82 603.734 167.82C603.531 167.82 603.32 167.789 603.25 167.766V168.992C603.359 169.031 603.578 169.078 603.867 169.078C605.273 169.078 605.992 168.023 606.172 165.703ZM613.445 169H614.805L618.969 162.719H619.094V169H620.453V160.578H619.094L614.93 166.859H614.805V160.578H613.445V169ZM629.422 165.164L632.719 169H634.461L630.523 164.547L634.312 160.578H632.68L629.422 164.102H628.992V160.578H627.633V169H628.992V165.164H629.422ZM638.422 169.148C639.555 169.148 640.438 168.656 640.969 167.758H641.094V169H642.453V163.234C642.453 161.484 641.305 160.43 639.25 160.43C637.453 160.43 636.172 161.32 635.953 162.641L635.945 162.688H637.305L637.312 162.664C637.531 162.008 638.195 161.633 639.203 161.633C640.461 161.633 641.094 162.195 641.094 163.234V164L638.68 164.148C636.719 164.266 635.609 165.133 635.609 166.633V166.648C635.609 168.18 636.82 169.148 638.422 169.148ZM637 166.617V166.602C637 165.766 637.562 165.312 638.844 165.234L641.094 165.094V165.859C641.094 167.062 640.086 167.969 638.703 167.969C637.727 167.969 637 167.469 637 166.617ZM646.875 165.164L650.172 169H651.914L647.977 164.547L651.766 160.578H650.133L646.875 164.102H646.445V160.578H645.086V169H646.445V165.164H646.875ZM653.789 169H655.148L659.312 162.719H659.438V169H660.797V160.578H659.438L655.273 166.859H655.148V160.578H653.789V169ZM666.922 169.148C668.906 169.148 670.109 168.023 670.398 166.883L670.414 166.82H669.055L669.023 166.891C668.797 167.398 668.094 167.938 666.953 167.938C665.453 167.938 664.492 166.922 664.453 165.18H670.516V164.648C670.516 162.133 669.125 160.43 666.836 160.43C664.547 160.43 663.062 162.211 663.062 164.812V164.82C663.062 167.461 664.516 169.148 666.922 169.148ZM666.828 161.641C668.07 161.641 668.992 162.43 669.133 164.094H664.477C664.625 162.492 665.578 161.641 666.828 161.641ZM672.586 165.094H677.836V163.828H672.586V165.094ZM686.266 160.578H679.453V161.703H682.18V169H683.539V161.703H686.266V160.578ZM691.383 169.148C693.781 169.148 695.266 167.492 695.266 164.797V164.781C695.266 162.078 693.781 160.43 691.383 160.43C688.984 160.43 687.5 162.078 687.5 164.781V164.797C687.5 167.492 688.984 169.148 691.383 169.148ZM691.383 167.945C689.789 167.945 688.891 166.781 688.891 164.797V164.781C688.891 162.789 689.789 161.633 691.383 161.633C692.977 161.633 693.875 162.789 693.875 164.781V164.797C693.875 166.781 692.977 167.945 691.383 167.945ZM702.023 169H705.609C707.422 169 708.492 168.047 708.492 166.586V166.57C708.492 165.594 707.812 164.844 706.742 164.695V164.57C707.531 164.406 708.117 163.617 708.117 162.781V162.766C708.117 161.445 707.188 160.578 705.594 160.578H702.023V169ZM703.383 164.141V161.703H705.398C706.344 161.703 706.766 162.188 706.766 162.906V162.922C706.766 163.719 706.273 164.141 705.18 164.141H703.383ZM703.383 167.875V165.266H705.297C706.508 165.266 707.109 165.656 707.109 166.547V166.562C707.109 167.406 706.586 167.875 705.555 167.875H703.383ZM714.18 169.148C716.578 169.148 718.062 167.492 718.062 164.797V164.781C718.062 162.078 716.578 160.43 714.18 160.43C711.781 160.43 710.297 162.078 710.297 164.781V164.797C710.297 167.492 711.781 169.148 714.18 169.148ZM714.18 167.945C712.586 167.945 711.688 166.781 711.688 164.797V164.781C711.688 162.789 712.586 161.633 714.18 161.633C715.773 161.633 716.672 162.789 716.672 164.781V164.797C716.672 166.781 715.773 167.945 714.18 167.945ZM720.32 169H721.68V161.703H725.773V169H727.133V160.578H720.32V169ZM729.812 171.812H731.172V167.672H731.297C731.758 168.57 732.766 169.148 733.922 169.148C736.062 169.148 737.453 167.438 737.453 164.797V164.781C737.453 162.156 736.055 160.43 733.922 160.43C732.75 160.43 731.812 160.984 731.297 161.922H731.172V160.578H729.812V171.812ZM733.609 167.945C732.078 167.945 731.141 166.742 731.141 164.797V164.781C731.141 162.836 732.078 161.633 733.609 161.633C735.148 161.633 736.062 162.82 736.062 164.781V164.797C736.062 166.758 735.148 167.945 733.609 167.945ZM743.195 169.148C745.594 169.148 747.078 167.492 747.078 164.797V164.781C747.078 162.078 745.594 160.43 743.195 160.43C740.797 160.43 739.312 162.078 739.312 164.781V164.797C739.312 167.492 740.797 169.148 743.195 169.148ZM743.195 167.945C741.602 167.945 740.703 166.781 740.703 164.797V164.781C740.703 162.789 741.602 161.633 743.195 161.633C744.789 161.633 745.688 162.789 745.688 164.781V164.797C745.688 166.781 744.789 167.945 743.195 167.945ZM752.789 169.148C754.812 169.148 755.945 168.062 756.289 166.539L756.305 166.453L754.961 166.461L754.945 166.508C754.633 167.445 753.914 167.945 752.781 167.945C751.281 167.945 750.312 166.703 750.312 164.766V164.75C750.312 162.852 751.266 161.633 752.781 161.633C753.992 161.633 754.742 162.305 754.953 163.133L754.961 163.156H756.312L756.305 163.109C756.055 161.609 754.828 160.43 752.781 160.43C750.422 160.43 748.922 162.133 748.922 164.75V164.766C748.922 167.438 750.43 169.148 752.789 169.148ZM758.445 169H761.453C763.383 169 764.617 167.891 764.617 166.148V166.133C764.617 164.391 763.383 163.281 761.453 163.281H759.805V160.578H758.445V169ZM766.086 169H767.445V160.578H766.086V169ZM761.453 164.406C762.555 164.406 763.258 165.086 763.258 166.133V166.148C763.258 167.188 762.562 167.875 761.453 167.875H759.805V164.406H761.453ZM774.617 169H775.977L780.141 162.719H780.266V169H781.625V160.578H780.266L776.102 166.859H775.977V160.578H774.617V169ZM786.281 165.703L786.594 161.703H789.523V169H790.883V160.578H785.375L785.016 165.594C784.93 166.844 784.617 167.82 783.844 167.82C783.641 167.82 783.43 167.789 783.359 167.766V168.992C783.469 169.031 783.688 169.078 783.977 169.078C785.383 169.078 786.102 168.023 786.281 165.703ZM793.555 169H794.914L799.078 162.719H799.203V169H800.562V160.578H799.203L795.039 166.859H794.914V160.578H793.555V169ZM807.742 169H809.102V161.703H813.195V169H814.555V160.578H807.742V169ZM817.234 171.812H818.594V167.672H818.719C819.18 168.57 820.188 169.148 821.344 169.148C823.484 169.148 824.875 167.438 824.875 164.797V164.781C824.875 162.156 823.477 160.43 821.344 160.43C820.172 160.43 819.234 160.984 818.719 161.922H818.594V160.578H817.234V171.812ZM821.031 167.945C819.5 167.945 818.562 166.742 818.562 164.797V164.781C818.562 162.836 819.5 161.633 821.031 161.633C822.57 161.633 823.484 162.82 823.484 164.781V164.797C823.484 166.758 822.57 167.945 821.031 167.945ZM830.617 169.148C833.016 169.148 834.5 167.492 834.5 164.797V164.781C834.5 162.078 833.016 160.43 830.617 160.43C828.219 160.43 826.734 162.078 826.734 164.781V164.797C826.734 167.492 828.219 169.148 830.617 169.148ZM830.617 167.945C829.023 167.945 828.125 166.781 828.125 164.797V164.781C828.125 162.789 829.023 161.633 830.617 161.633C832.211 161.633 833.109 162.789 833.109 164.781V164.797C833.109 166.781 832.211 167.945 830.617 167.945ZM840.266 169.156C842.695 169.156 844.188 167.5 844.188 164.828V164.812C844.188 162.273 842.734 160.656 840.469 160.656C839.195 160.656 838.188 161.203 837.617 162.211H837.492L837.516 162.039C837.828 159.742 838.68 158.828 840.641 158.742L841.5 158.703C842.477 158.656 843.367 158.453 843.633 158.203V157C842.906 157.297 842.109 157.422 841.438 157.453L840.594 157.492C837.586 157.633 836.344 159.539 836.344 164.008V164.023C836.344 167.398 837.688 169.156 840.266 169.156ZM840.266 167.953C838.656 167.953 837.734 166.805 837.734 164.828V164.812C837.734 162.93 838.656 161.859 840.266 161.859C841.875 161.859 842.797 162.93 842.797 164.812V164.828C842.797 166.805 841.875 167.953 840.266 167.953ZM848.344 165.703L848.656 161.703H851.586V169H852.945V160.578H847.438L847.078 165.594C846.992 166.844 846.68 167.82 845.906 167.82C845.703 167.82 845.492 167.789 845.422 167.766V168.992C845.531 169.031 845.75 169.078 846.039 169.078C847.445 169.078 848.164 168.023 848.344 165.703ZM859.062 169.148C861.047 169.148 862.25 168.023 862.539 166.883L862.555 166.82H861.195L861.164 166.891C860.938 167.398 860.234 167.938 859.094 167.938C857.594 167.938 856.633 166.922 856.594 165.18H862.656V164.648C862.656 162.133 861.266 160.43 858.977 160.43C856.688 160.43 855.203 162.211 855.203 164.812V164.82C855.203 167.461 856.656 169.148 859.062 169.148ZM858.969 161.641C860.211 161.641 861.133 162.43 861.273 164.094H856.617C856.766 162.492 857.719 161.641 858.969 161.641ZM866.273 169V163.008H866.422L869.07 168.766H870.117L872.773 163.008H872.922V169H874.281V160.578H872.703L869.688 167.109H869.562L866.562 160.578H864.914V169H866.273ZM876.961 169H879.969C881.898 169 883.133 167.891 883.133 166.148V166.133C883.133 164.391 881.898 163.281 879.969 163.281H878.32V160.578H876.961V169ZM884.602 169H885.961V160.578H884.602V169ZM879.969 164.406C881.07 164.406 881.773 165.086 881.773 166.133V166.148C881.773 167.188 881.078 167.875 879.969 167.875H878.32V164.406H879.969ZM888.219 171.867H889.227L890.453 167.422H888.898L888.219 171.867ZM900.75 169.156C902.711 169.156 904.062 168.086 904.062 166.523V166.508C904.062 165.57 903.477 164.898 902.367 164.656V164.531C903.203 164.336 903.758 163.562 903.758 162.711V162.695C903.758 161.352 902.68 160.422 900.797 160.422C899.078 160.422 897.844 161.281 897.648 162.633L897.641 162.688H898.969L898.977 162.648C899.109 161.977 899.836 161.547 900.797 161.547C901.875 161.547 902.43 162.078 902.43 162.797V162.812C902.43 163.688 901.828 164.117 900.75 164.117H899.438V165.242H900.75C902.039 165.242 902.727 165.664 902.727 166.578V166.594C902.727 167.43 901.992 168.031 900.75 168.031C899.727 168.031 898.977 167.594 898.805 166.906L898.789 166.844H897.406L897.414 166.906C897.586 168.266 898.953 169.156 900.75 169.156ZM908.641 169.148C909.773 169.148 910.656 168.656 911.188 167.758H911.312V169H912.672V163.234C912.672 161.484 911.523 160.43 909.469 160.43C907.672 160.43 906.391 161.32 906.172 162.641L906.164 162.688H907.523L907.531 162.664C907.75 162.008 908.414 161.633 909.422 161.633C910.68 161.633 911.312 162.195 911.312 163.234V164L908.898 164.148C906.938 164.266 905.828 165.133 905.828 166.633V166.648C905.828 168.18 907.039 169.148 908.641 169.148ZM907.219 166.617V166.602C907.219 165.766 907.781 165.312 909.062 165.234L911.312 165.094V165.859C911.312 167.062 910.305 167.969 908.922 167.969C907.945 167.969 907.219 167.469 907.219 166.617ZM915.305 169H916.664V161.703H920.758V169H922.117V160.578H915.305V169ZM928.258 169.148C930.656 169.148 932.141 167.492 932.141 164.797V164.781C932.141 162.078 930.656 160.43 928.258 160.43C925.859 160.43 924.375 162.078 924.375 164.781V164.797C924.375 167.492 925.859 169.148 928.258 169.148ZM928.258 167.945C926.664 167.945 925.766 166.781 925.766 164.797V164.781C925.766 162.789 926.664 161.633 928.258 161.633C929.852 161.633 930.75 162.789 930.75 164.781V164.797C930.75 166.781 929.852 167.945 928.258 167.945ZM936.297 165.703L936.609 161.703H939.539V169H940.898V160.578H935.391L935.031 165.594C934.945 166.844 934.633 167.82 933.859 167.82C933.656 167.82 933.445 167.789 933.375 167.766V168.992C933.484 169.031 933.703 169.078 933.992 169.078C935.398 169.078 936.117 168.023 936.297 165.703ZM949.102 169H950.461V160.578H949.102V164.062H944.93V160.578H943.57V169H944.93V165.188H949.102V169ZM953.133 169H954.492L958.656 162.719H958.781V169H960.141V160.578H958.781L954.617 166.859H954.492V160.578H953.133V169ZM968.922 160.578H962.109V161.703H964.836V169H966.195V161.703H968.922V160.578ZM974.016 169.148C976 169.148 977.203 168.023 977.492 166.883L977.508 166.82H976.148L976.117 166.891C975.891 167.398 975.188 167.938 974.047 167.938C972.547 167.938 971.586 166.922 971.547 165.18H977.609V164.648C977.609 162.133 976.219 160.43 973.93 160.43C971.641 160.43 970.156 162.211 970.156 164.812V164.82C970.156 167.461 971.609 169.148 974.016 169.148ZM973.922 161.641C975.164 161.641 976.086 162.43 976.227 164.094H971.57C971.719 162.492 972.672 161.641 973.922 161.641ZM607.188 197.812H608.5V195.102C611.102 195.062 612.836 193.391 612.836 190.797V190.781C612.836 188.188 611.102 186.523 608.5 186.477V183.727H607.188V186.477C604.578 186.516 602.844 188.188 602.844 190.781V190.797C602.844 193.383 604.578 195.055 607.188 195.102V197.812ZM607.188 193.938C605.367 193.891 604.211 192.703 604.211 190.797V190.781C604.211 188.867 605.367 187.68 607.188 187.641V193.938ZM608.5 193.938V187.641C610.312 187.688 611.469 188.875 611.469 190.781V190.797C611.469 192.711 610.312 193.898 608.5 193.938ZM618.57 195.148C620.969 195.148 622.453 193.492 622.453 190.797V190.781C622.453 188.078 620.969 186.43 618.57 186.43C616.172 186.43 614.688 188.078 614.688 190.781V190.797C614.688 193.492 616.172 195.148 618.57 195.148ZM618.57 193.945C616.977 193.945 616.078 192.781 616.078 190.797V190.781C616.078 188.789 616.977 187.633 618.57 187.633C620.164 187.633 621.062 188.789 621.062 190.781V190.797C621.062 192.781 620.164 193.945 618.57 193.945ZM624.719 197.812H626.078V193.672H626.203C626.664 194.57 627.672 195.148 628.828 195.148C630.969 195.148 632.359 193.438 632.359 190.797V190.781C632.359 188.156 630.961 186.43 628.828 186.43C627.656 186.43 626.719 186.984 626.203 187.922H626.078V186.578H624.719V197.812ZM628.516 193.945C626.984 193.945 626.047 192.742 626.047 190.797V190.781C626.047 188.836 626.984 187.633 628.516 187.633C630.055 187.633 630.969 188.82 630.969 190.781V190.797C630.969 192.758 630.055 193.945 628.516 193.945ZM635.992 195V189.008H636.141L638.789 194.766H639.836L642.492 189.008H642.641V195H644V186.578H642.422L639.406 193.109H639.281L636.281 186.578H634.633V195H635.992ZM647.406 197.953C648.898 197.953 649.594 197.406 650.289 195.516L653.578 186.578H652.148L649.844 193.508H649.719L647.406 186.578H645.953L649.07 195.008L648.914 195.508C648.609 196.477 648.141 196.828 647.367 196.828C647.18 196.828 646.969 196.82 646.805 196.789V197.906C646.992 197.938 647.227 197.953 647.406 197.953ZM660.023 195H661.383L665.547 188.719H665.672V195H667.031V186.578H665.672L661.508 192.859H661.383V186.578H660.023V195ZM675.57 195V189.008H675.719L678.367 194.766H679.414L682.07 189.008H682.219V195H683.578V186.578H682L678.984 193.109H678.859L675.859 186.578H674.211V195H675.57ZM686.258 195H689.266C691.195 195 692.43 193.891 692.43 192.148V192.133C692.43 190.391 691.195 189.281 689.266 189.281H687.617V186.578H686.258V195ZM693.898 195H695.258V186.578H693.898V195ZM689.266 190.406C690.367 190.406 691.07 191.086 691.07 192.133V192.148C691.07 193.188 690.375 193.875 689.266 193.875H687.617V190.406H689.266ZM702.609 195H707.008C709.406 195 710.828 193.82 710.828 191.844V191.828C710.828 190.344 709.852 189.289 708.312 189.094V188.969C709.398 188.773 710.258 187.711 710.258 186.547V186.531C710.258 184.812 708.992 183.727 706.922 183.727H702.609V195ZM706.625 184.969C708.023 184.969 708.836 185.633 708.836 186.773V186.789C708.836 187.977 707.969 188.586 706.266 188.586H704.016V184.969H706.625ZM706.664 189.797C708.461 189.797 709.383 190.461 709.383 191.758V191.773C709.383 193.07 708.492 193.758 706.797 193.758H704.016V189.797H706.664ZM715.422 195.148C716.555 195.148 717.438 194.656 717.969 193.758H718.094V195H719.453V189.234C719.453 187.484 718.305 186.43 716.25 186.43C714.453 186.43 713.172 187.32 712.953 188.641L712.945 188.688H714.305L714.312 188.664C714.531 188.008 715.195 187.633 716.203 187.633C717.461 187.633 718.094 188.195 718.094 189.234V190L715.68 190.148C713.719 190.266 712.609 191.133 712.609 192.633V192.648C712.609 194.18 713.82 195.148 715.422 195.148ZM714 192.617V192.602C714 191.766 714.562 191.312 715.844 191.234L718.094 191.094V191.859C718.094 193.062 717.086 193.969 715.703 193.969C714.727 193.969 714 193.469 714 192.617ZM723.445 195V189.008H723.594L726.242 194.766H727.289L729.945 189.008H730.094V195H731.453V186.578H729.875L726.859 193.109H726.734L723.734 186.578H722.086V195H723.445ZM738.633 195H739.992V187.703H744.086V195H745.445V186.578H738.633V195ZM751.562 195.148C753.547 195.148 754.75 194.023 755.039 192.883L755.055 192.82H753.695L753.664 192.891C753.438 193.398 752.734 193.938 751.594 193.938C750.094 193.938 749.133 192.922 749.094 191.18H755.156V190.648C755.156 188.133 753.766 186.43 751.477 186.43C749.188 186.43 747.703 188.211 747.703 190.812V190.82C747.703 193.461 749.156 195.148 751.562 195.148ZM751.469 187.641C752.711 187.641 753.633 188.43 753.773 190.094H749.117C749.266 188.492 750.219 187.641 751.469 187.641ZM757.422 197.812H758.781V193.672H758.906C759.367 194.57 760.375 195.148 761.531 195.148C763.672 195.148 765.062 193.438 765.062 190.797V190.781C765.062 188.156 763.664 186.43 761.531 186.43C760.359 186.43 759.422 186.984 758.906 187.922H758.781V186.578H757.422V197.812ZM761.219 193.945C759.688 193.945 758.75 192.742 758.75 190.797V190.781C758.75 188.836 759.688 187.633 761.219 187.633C762.758 187.633 763.672 188.82 763.672 190.781V190.797C763.672 192.758 762.758 193.945 761.219 193.945ZM770.781 195.148C772.766 195.148 773.969 194.023 774.258 192.883L774.273 192.82H772.914L772.883 192.891C772.656 193.398 771.953 193.938 770.812 193.938C769.312 193.938 768.352 192.922 768.312 191.18H774.375V190.648C774.375 188.133 772.984 186.43 770.695 186.43C768.406 186.43 766.922 188.211 766.922 190.812V190.82C766.922 193.461 768.375 195.148 770.781 195.148ZM770.688 187.641C771.93 187.641 772.852 188.43 772.992 190.094H768.336C768.484 188.492 769.438 187.641 770.688 187.641ZM779.5 195.156C781.461 195.156 782.812 194.086 782.812 192.523V192.508C782.812 191.57 782.227 190.898 781.117 190.656V190.531C781.953 190.336 782.508 189.562 782.508 188.711V188.695C782.508 187.352 781.43 186.422 779.547 186.422C777.828 186.422 776.594 187.281 776.398 188.633L776.391 188.688H777.719L777.727 188.648C777.859 187.977 778.586 187.547 779.547 187.547C780.625 187.547 781.18 188.078 781.18 188.797V188.812C781.18 189.688 780.578 190.117 779.5 190.117H778.188V191.242H779.5C780.789 191.242 781.477 191.664 781.477 192.578V192.594C781.477 193.43 780.742 194.031 779.5 194.031C778.477 194.031 777.727 193.594 777.555 192.906L777.539 192.844H776.156L776.164 192.906C776.336 194.266 777.703 195.156 779.5 195.156ZM785.07 195H788.656C790.469 195 791.539 194.047 791.539 192.586V192.57C791.539 191.594 790.859 190.844 789.789 190.695V190.57C790.578 190.406 791.164 189.617 791.164 188.781V188.766C791.164 187.445 790.234 186.578 788.641 186.578H785.07V195ZM786.43 190.141V187.703H788.445C789.391 187.703 789.812 188.188 789.812 188.906V188.922C789.812 189.719 789.32 190.141 788.227 190.141H786.43ZM786.43 193.875V191.266H788.344C789.555 191.266 790.156 191.656 790.156 192.547V192.562C790.156 193.406 789.633 193.875 788.602 193.875H786.43ZM797.227 195.148C799.625 195.148 801.109 193.492 801.109 190.797V190.781C801.109 188.078 799.625 186.43 797.227 186.43C794.828 186.43 793.344 188.078 793.344 190.781V190.797C793.344 193.492 794.828 195.148 797.227 195.148ZM797.227 193.945C795.633 193.945 794.734 192.781 794.734 190.797V190.781C794.734 188.789 795.633 187.633 797.227 187.633C798.82 187.633 799.719 188.789 799.719 190.781V190.797C799.719 192.781 798.82 193.945 797.227 193.945ZM808.898 195H810.258V186.578H808.898V190.062H804.727V186.578H803.367V195H804.727V191.188H808.898V195ZM812.93 195H814.289L818.453 188.719H818.578V195H819.938V186.578H818.578L814.414 192.859H814.289V186.578H812.93V195ZM823.977 195V189.008H824.125L826.773 194.766H827.82L830.477 189.008H830.625V195H831.984V186.578H830.406L827.391 193.109H827.266L824.266 186.578H822.617V195H823.977ZM835.703 195.078C836.266 195.078 836.719 194.617 836.719 194.062C836.719 193.5 836.266 193.047 835.703 193.047C835.148 193.047 834.688 193.5 834.688 194.062C834.688 194.617 835.148 195.078 835.703 195.078Z" fill="#454F5B"/>
<rect x="346" y="226" width="240" height="50" fill="#161C24" fill-opacity="0.04"/>
<path opacity="0.8" d="M363.516 257H367.914C370.312 257 371.734 255.82 371.734 253.844V253.828C371.734 252.344 370.758 251.289 369.219 251.094V250.969C370.305 250.773 371.164 249.711 371.164 248.547V248.531C371.164 246.812 369.898 245.727 367.828 245.727H363.516V257ZM367.531 246.969C368.93 246.969 369.742 247.633 369.742 248.773V248.789C369.742 249.977 368.875 250.586 367.172 250.586H364.922V246.969H367.531ZM367.57 251.797C369.367 251.797 370.289 252.461 370.289 253.758V253.773C370.289 255.07 369.398 255.758 367.703 255.758H364.922V251.797H367.57ZM376.328 257.148C377.461 257.148 378.344 256.656 378.875 255.758H379V257H380.359V251.234C380.359 249.484 379.211 248.43 377.156 248.43C375.359 248.43 374.078 249.32 373.859 250.641L373.852 250.688H375.211L375.219 250.664C375.438 250.008 376.102 249.633 377.109 249.633C378.367 249.633 379 250.195 379 251.234V252L376.586 252.148C374.625 252.266 373.516 253.133 373.516 254.633V254.648C373.516 256.18 374.727 257.148 376.328 257.148ZM374.906 254.617V254.602C374.906 253.766 375.469 253.312 376.75 253.234L379 253.094V253.859C379 255.062 377.992 255.969 376.609 255.969C375.633 255.969 374.906 255.469 374.906 254.617ZM382.992 257H393.398V248.578H392.039V255.875H388.875V248.578H387.516V255.875H384.352V248.578H382.992V257ZM399.516 257.148C401.5 257.148 402.703 256.023 402.992 254.883L403.008 254.82H401.648L401.617 254.891C401.391 255.398 400.688 255.938 399.547 255.938C398.047 255.938 397.086 254.922 397.047 253.18H403.109V252.648C403.109 250.133 401.719 248.43 399.43 248.43C397.141 248.43 395.656 250.211 395.656 252.812V252.82C395.656 255.461 397.109 257.148 399.516 257.148ZM399.422 249.641C400.664 249.641 401.586 250.43 401.727 252.094H397.07C397.219 250.492 398.172 249.641 399.422 249.641ZM409.867 257H411.227L415.391 250.719H415.516V257H416.875V248.578H415.516L411.352 254.859H411.227V248.578H409.867V257ZM420.914 257V251.008H421.062L423.711 256.766H424.758L427.414 251.008H427.562V257H428.922V248.578H427.344L424.328 255.109H424.203L421.203 248.578H419.555V257H420.914ZM436.07 257H437.43V248.578H434.5C432.57 248.578 431.336 249.633 431.336 251.359V251.375C431.336 252.523 432.055 253.398 433.242 253.734L430.891 257H432.492L434.641 253.984H436.07V257ZM434.5 252.859C433.398 252.859 432.727 252.227 432.727 251.344V251.328C432.727 250.312 433.391 249.703 434.5 249.703H436.07V252.859H434.5Z" fill="#454F5B"/>
<rect x="610" y="226" width="240" height="50" fill="#161C24" fill-opacity="0.04"/>
<path opacity="0.8" d="M627.516 257H631.914C634.312 257 635.734 255.82 635.734 253.844V253.828C635.734 252.344 634.758 251.289 633.219 251.094V250.969C634.305 250.773 635.164 249.711 635.164 248.547V248.531C635.164 246.812 633.898 245.727 631.828 245.727H627.516V257ZM631.531 246.969C632.93 246.969 633.742 247.633 633.742 248.773V248.789C633.742 249.977 632.875 250.586 631.172 250.586H628.922V246.969H631.531ZM631.57 251.797C633.367 251.797 634.289 252.461 634.289 253.758V253.773C634.289 255.07 633.398 255.758 631.703 255.758H628.922V251.797H631.57ZM640.328 257.148C641.461 257.148 642.344 256.656 642.875 255.758H643V257H644.359V251.234C644.359 249.484 643.211 248.43 641.156 248.43C639.359 248.43 638.078 249.32 637.859 250.641L637.852 250.688H639.211L639.219 250.664C639.438 250.008 640.102 249.633 641.109 249.633C642.367 249.633 643 250.195 643 251.234V252L640.586 252.148C638.625 252.266 637.516 253.133 637.516 254.633V254.648C637.516 256.18 638.727 257.148 640.328 257.148ZM638.906 254.617V254.602C638.906 253.766 639.469 253.312 640.75 253.234L643 253.094V253.859C643 255.062 641.992 255.969 640.609 255.969C639.633 255.969 638.906 255.469 638.906 254.617ZM646.992 257H657.398V248.578H656.039V255.875H652.875V248.578H651.516V255.875H648.352V248.578H646.992V257ZM664.672 257H671.656V255.734H666.078V251.859H671.367V250.609H666.078V246.992H671.656V245.727H664.672V257ZM674.031 257H675.391V251.781C675.391 250.594 676.227 249.633 677.328 249.633C678.391 249.633 679.078 250.281 679.078 251.281V257H680.438V251.586C680.438 250.516 681.211 249.633 682.383 249.633C683.57 249.633 684.141 250.25 684.141 251.492V257H685.5V251.18C685.5 249.414 684.539 248.43 682.82 248.43C681.656 248.43 680.695 249.016 680.242 249.906H680.117C679.727 249.031 678.93 248.43 677.789 248.43C676.688 248.43 675.891 248.953 675.516 249.859H675.391V248.578H674.031V257ZM690.266 257.148C691.398 257.148 692.281 256.656 692.812 255.758H692.938V257H694.297V251.234C694.297 249.484 693.148 248.43 691.094 248.43C689.297 248.43 688.016 249.32 687.797 250.641L687.789 250.688H689.148L689.156 250.664C689.375 250.008 690.039 249.633 691.047 249.633C692.305 249.633 692.938 250.195 692.938 251.234V252L690.523 252.148C688.562 252.266 687.453 253.133 687.453 254.633V254.648C687.453 256.18 688.664 257.148 690.266 257.148ZM688.844 254.617V254.602C688.844 253.766 689.406 253.312 690.688 253.234L692.938 253.094V253.859C692.938 255.062 691.93 255.969 690.547 255.969C689.57 255.969 688.844 255.469 688.844 254.617ZM697.5 246.953C698.016 246.953 698.438 246.531 698.438 246.016C698.438 245.5 698.016 245.078 697.5 245.078C696.984 245.078 696.562 245.5 696.562 246.016C696.562 246.531 696.984 246.953 697.5 246.953ZM696.812 257H698.172V248.578H696.812V257ZM700.812 257H702.172V245.234H700.812V257Z" fill="#454F5B"/>
<rect x="874" y="226" width="220" height="50" fill="#4295E4"/>
<path d="M950.992 245.539C952.612 245.539 953.896 246.062 954.844 247.109C955.797 248.156 956.273 249.576 956.273 251.367C956.273 253.159 955.799 254.578 954.852 255.625C953.904 256.667 952.617 257.188 950.992 257.188C949.367 257.188 948.081 256.667 947.133 255.625C946.185 254.578 945.711 253.159 945.711 251.367C945.711 249.576 946.185 248.156 947.133 247.109C948.081 246.062 949.367 245.539 950.992 245.539ZM950.992 247.078C949.919 247.078 949.068 247.464 948.438 248.234C947.812 249.005 947.5 250.049 947.5 251.367C947.5 252.68 947.812 253.721 948.438 254.492C949.068 255.263 949.919 255.648 950.992 255.648C952.06 255.648 952.906 255.263 953.531 254.492C954.161 253.721 954.477 252.68 954.477 251.367C954.477 250.049 954.161 249.005 953.531 248.234C952.906 247.464 952.06 247.078 950.992 247.078ZM964.141 248.781V250.117H961.562V257H959.883V250.117H957.305V248.781H964.141ZM970.695 257V250.117H967.055V257H965.375V248.781H972.383V257H970.695ZM978.492 248.648C979.539 248.648 980.378 249.031 981.008 249.797C981.638 250.562 981.953 251.594 981.953 252.891C981.953 254.188 981.641 255.221 981.016 255.992C980.391 256.758 979.56 257.141 978.523 257.141C977.94 257.141 977.422 257.008 976.969 256.742C976.521 256.477 976.177 256.112 975.938 255.648H975.898V259.719H974.211V248.781H975.844V250.195H975.875C976.12 249.716 976.471 249.339 976.93 249.062C977.388 248.786 977.909 248.648 978.492 248.648ZM978.047 255.711C978.714 255.711 979.242 255.458 979.633 254.953C980.023 254.443 980.219 253.755 980.219 252.891C980.219 252.031 980.023 251.346 979.633 250.836C979.242 250.326 978.714 250.07 978.047 250.07C977.401 250.07 976.88 250.328 976.484 250.844C976.089 251.359 975.891 252.042 975.891 252.891C975.891 253.745 976.086 254.43 976.477 254.945C976.872 255.456 977.396 255.711 978.047 255.711ZM986.289 255.805C986.883 255.805 987.38 255.625 987.781 255.266C988.188 254.901 988.391 254.453 988.391 253.922V253.273L986.367 253.398C985.862 253.435 985.471 253.56 985.195 253.773C984.924 253.982 984.789 254.263 984.789 254.617C984.789 254.977 984.924 255.266 985.195 255.484C985.471 255.698 985.836 255.805 986.289 255.805ZM985.82 257.141C985.013 257.141 984.354 256.911 983.844 256.453C983.339 255.995 983.086 255.398 983.086 254.664C983.086 253.945 983.352 253.375 983.883 252.953C984.414 252.526 985.167 252.286 986.141 252.234L988.391 252.102V251.469C988.391 251.01 988.245 250.654 987.953 250.398C987.661 250.138 987.258 250.008 986.742 250.008C986.263 250.008 985.872 250.115 985.57 250.328C985.273 250.542 985.086 250.836 985.008 251.211H983.414C983.461 250.451 983.789 249.831 984.398 249.352C985.008 248.872 985.81 248.633 986.805 248.633C987.799 248.633 988.591 248.878 989.18 249.367C989.773 249.857 990.07 250.513 990.07 251.336V257H988.453V255.648H988.414C988.18 256.102 987.823 256.464 987.344 256.734C986.87 257.005 986.362 257.141 985.82 257.141ZM995.234 250.008H993.508V252.164H995.07C996.023 252.164 996.5 251.799 996.5 251.07C996.5 250.732 996.391 250.471 996.172 250.289C995.953 250.102 995.641 250.008 995.234 250.008ZM995.18 253.344H993.508V255.773H995.367C995.846 255.773 996.211 255.672 996.461 255.469C996.711 255.26 996.836 254.958 996.836 254.562C996.836 253.75 996.284 253.344 995.18 253.344ZM991.844 257V248.781H995.578C996.38 248.781 997.008 248.969 997.461 249.344C997.919 249.714 998.148 250.224 998.148 250.875C998.148 251.302 998.013 251.688 997.742 252.031C997.477 252.37 997.146 252.576 996.75 252.648V252.711C997.281 252.784 997.708 252.995 998.031 253.344C998.354 253.688 998.516 254.117 998.516 254.633C998.516 255.357 998.255 255.932 997.734 256.359C997.219 256.786 996.516 257 995.625 257H991.844ZM1001.68 257H1000.02V248.781H1001.68V254.539H1001.74L1005.54 248.781H1007.2V257H1005.54V251.227H1005.48L1001.68 257ZM1015.27 248.781V250.117H1012.69V257H1011.01V250.117H1008.43V248.781H1015.27ZM1019.6 252.641H1018.18V255.672H1019.6C1020.09 255.672 1020.47 255.534 1020.76 255.258C1021.05 254.977 1021.2 254.609 1021.2 254.156C1021.2 253.698 1021.05 253.331 1020.76 253.055C1020.47 252.779 1020.08 252.641 1019.6 252.641ZM1016.5 257V248.781H1018.18V251.32H1019.75C1020.7 251.32 1021.46 251.578 1022.02 252.094C1022.59 252.604 1022.88 253.292 1022.88 254.156C1022.88 255.026 1022.59 255.719 1022.02 256.234C1021.46 256.745 1020.7 257 1019.75 257H1016.5Z" fill="white"/>
</svg>
